<?xml version="1.0" encoding="utf-8"?>
<!-- Generator: Adobe Illustrator 19.1.0, SVG Export Plug-In . SVG Version: 6.00 Build 0)  -->
<svg version="1.1" id="Layer_1_copy" xmlns="http://www.w3.org/2000/svg" xmlns:xlink="http://www.w3.org/1999/xlink" x="0px"
	 y="0px" viewBox="-229 231 40 40" style="enable-background:new -229 231 40 40;" xml:space="preserve">
<style type="text/css">
	.st0{fill:#FFFFFF;}
	.st1{fill:#F89C00;}
</style>
<rect x="-229" y="231" width="40" height="40"/>
<g>
	<path class="st0" d="M-207.3,246.4c0-1,0.1-1.9-0.2-2.8c-0.2-0.5-0.5-0.9-1.1-1.2c-1.2-0.6-2.9-0.3-3.8,0.7
		c-0.3,0.4-0.5,0.8-0.7,1.3c-0.2,0.6-0.4,0.8-1.1,0.7c-1.1-0.1-2.1-0.2-3.2-0.4c-0.6-0.1-0.8-0.4-0.7-1c0.5-2.4,1.9-4.1,4.2-5
		c2.7-1,5.4-1.1,8.1-0.1c2.3,0.9,3.6,2.6,3.7,5.1c0.1,2.8,0.1,5.5,0.1,8.3c0,1.5,0.3,2.8,1.3,4c0.1,0.1,0.2,0.3,0.3,0.4
		c0.2,0.3,0.1,0.6-0.2,0.9c-0.9,0.8-1.9,1.6-2.8,2.4c-0.5,0.4-0.9,0.4-1.3,0c-0.6-0.6-1.1-1.2-1.6-1.8c-0.1-0.2-0.2-0.3-0.4-0.5
		c-0.4,0.3-0.7,0.7-1.1,1c-1.3,1.2-2.9,1.7-4.7,1.8c-0.9,0-1.7,0-2.5-0.2c-1.7-0.5-3-1.6-3.5-3.4c-0.6-2.1-0.5-4.1,0.6-6
		c1-1.7,2.5-2.6,4.3-3.1c1.6-0.5,3.2-0.6,4.8-0.8C-208.3,246.5-207.8,246.4-207.3,246.4z M-207.3,249.5c-1.4,0-2.7,0.1-3.9,0.7
		c-0.3,0.2-0.6,0.4-0.8,0.6c-1,0.9-1.1,2.1-0.9,3.3c0.3,1.8,2.1,2.6,3.6,1.7c0.8-0.5,1.3-1.3,1.7-2.2
		C-207.2,252.3-207.3,250.9-207.3,249.5z"/>
	<path class="st1" d="M-210.1,264.1c-5.2-0.1-9.5-1.4-13.3-4.2c-0.1-0.1-0.3-0.4-0.3-0.4c0.1-0.3,0.4-0.1,0.5,0
		c2.3,1,4.7,1.8,7.2,2.2c1.2,0.2,2.4,0.3,3.5,0.4c5,0.3,9.8-0.8,14.3-3c0.2-0.1,0.4-0.2,0.6-0.3c0.2-0.1,0.5-0.1,0.6,0.1
		c0.2,0.2,0,0.4-0.2,0.5c-0.9,0.6-1.7,1.3-2.7,1.9c-2.5,1.4-5.1,2.3-7.9,2.7C-208.6,264-209.6,264-210.1,264.1z"/>
	<path class="st1" d="M-194.4,257.5c0,1.3-0.4,2.6-1.2,3.7c-0.1,0.1-0.2,0.2-0.3,0.3c-0.1,0.1-0.2,0.1-0.3,0.1c0-0.1,0-0.2,0-0.3
		c0.2-0.6,0.4-1.3,0.5-1.9c0.1-0.4,0.1-0.9,0.1-1.3c0-0.3-0.1-0.5-0.4-0.5c-0.6,0-1.2,0-1.8,0c-0.5,0-1,0.2-1.5,0.3
		c-0.1,0-0.2,0-0.3-0.1c0.1-0.1,0.1-0.2,0.2-0.3c0.6-0.5,1.4-0.8,2.2-1c0.7-0.1,1.4-0.2,2.2-0.1c0.7,0.1,0.8,0.2,0.8,0.9
		C-194.4,257.4-194.4,257.4-194.4,257.5z"/>
</g>
</svg>
